<svg width="254" height="29" viewBox="0 0 254 29" fill="none" xmlns="http://www.w3.org/2000/svg">
<path d="M0.52 3.024H6.64L16.576 19.836V3.024H21.364V27H15.316L5.308 10.08V27H0.52V3.024ZM34.963 27.54C31.963 27.54 29.599 26.676 27.871 24.948C26.167 23.22 25.315 20.82 25.315 17.748C25.315 15.756 25.687 14.028 26.431 12.564C27.175 11.076 28.219 9.936 29.563 9.144C30.931 8.352 32.527 7.956 34.351 7.956C37.039 7.956 39.103 8.82 40.543 10.548C41.983 12.276 42.703 14.772 42.703 18.036C42.703 18.588 42.691 18.996 42.667 19.26H30.427C30.667 20.532 31.219 21.504 32.083 22.176C32.947 22.824 34.111 23.148 35.575 23.148C36.463 23.148 37.387 23.04 38.347 22.824C39.307 22.584 40.147 22.272 40.867 21.888L41.695 25.956C40.735 26.46 39.667 26.844 38.491 27.108C37.339 27.396 36.163 27.54 34.963 27.54ZM37.843 15.444C37.771 14.412 37.411 13.596 36.763 12.996C36.115 12.372 35.251 12.06 34.171 12.06C33.139 12.06 32.287 12.36 31.615 12.96C30.967 13.56 30.559 14.388 30.391 15.444H37.843ZM44.4122 8.46H49.5962L52.9082 20.736L56.4722 8.568L62.1962 8.1L66.0482 21.096L69.4322 8.46H74.2562L68.6042 27H63.0602L59.2442 13.536L55.2482 27H49.8122L44.4122 8.46ZM82.2743 27.54C81.0983 27.54 79.9583 27.42 78.8543 27.18C77.7743 26.94 76.8503 26.616 76.0823 26.208L76.5503 21.888C77.3663 22.392 78.2663 22.8 79.2503 23.112C80.2343 23.424 81.1583 23.58 82.0223 23.58C82.8383 23.58 83.5223 23.436 84.0743 23.148C84.6263 22.836 84.9023 22.392 84.9023 21.816C84.9023 21.36 84.7103 21.012 84.3263 20.772C83.9423 20.508 83.2103 20.184 82.1303 19.8L81.1583 19.44C80.1263 19.056 79.2863 18.696 78.6383 18.36C77.9903 18 77.4023 17.46 76.8743 16.74C76.3463 16.02 76.0823 15.072 76.0823 13.896C76.0823 12.024 76.7783 10.572 78.1703 9.54C79.5863 8.484 81.4223 7.956 83.6783 7.956C85.4543 7.956 87.3263 8.304 89.2943 9L88.6103 13.284C87.9143 12.876 87.1223 12.552 86.2343 12.312C85.3703 12.048 84.5543 11.916 83.7863 11.916C82.9943 11.916 82.3583 12.048 81.8783 12.312C81.4223 12.576 81.1943 12.96 81.1943 13.464C81.1943 13.944 81.3863 14.304 81.7703 14.544C82.1543 14.784 82.8023 15.06 83.7143 15.372C84.4343 15.636 84.8543 15.792 84.9743 15.84C85.9823 16.248 86.8223 16.644 87.4943 17.028C88.1663 17.412 88.7543 17.988 89.2583 18.756C89.7623 19.5 90.0143 20.46 90.0143 21.636C90.0143 23.604 89.3063 25.08 87.8903 26.064C86.4743 27.048 84.6023 27.54 82.2743 27.54ZM93.9653 3.024H108.617V7.56H99.1853V13.032H106.997V17.532H99.1853V27H93.9653V3.024ZM120.217 27.54C117.217 27.54 114.853 26.676 113.125 24.948C111.421 23.22 110.569 20.82 110.569 17.748C110.569 15.756 110.941 14.028 111.685 12.564C112.429 11.076 113.473 9.936 114.817 9.144C116.185 8.352 117.781 7.956 119.605 7.956C122.293 7.956 124.357 8.82 125.797 10.548C127.237 12.276 127.957 14.772 127.957 18.036C127.957 18.588 127.945 18.996 127.921 19.26H115.681C115.921 20.532 116.473 21.504 117.337 22.176C118.201 22.824 119.365 23.148 120.829 23.148C121.717 23.148 122.641 23.04 123.601 22.824C124.561 22.584 125.401 22.272 126.121 21.888L126.949 25.956C125.989 26.46 124.921 26.844 123.745 27.108C122.593 27.396 121.417 27.54 120.217 27.54ZM123.097 15.444C123.025 14.412 122.665 13.596 122.017 12.996C121.369 12.372 120.505 12.06 119.425 12.06C118.393 12.06 117.541 12.36 116.869 12.96C116.221 13.56 115.813 14.388 115.645 15.444H123.097ZM140.678 27.54C137.678 27.54 135.314 26.676 133.586 24.948C131.882 23.22 131.03 20.82 131.03 17.748C131.03 15.756 131.402 14.028 132.146 12.564C132.89 11.076 133.934 9.936 135.278 9.144C136.646 8.352 138.242 7.956 140.066 7.956C142.754 7.956 144.818 8.82 146.258 10.548C147.698 12.276 148.418 14.772 148.418 18.036C148.418 18.588 148.406 18.996 148.382 19.26H136.142C136.382 20.532 136.934 21.504 137.798 22.176C138.662 22.824 139.826 23.148 141.29 23.148C142.178 23.148 143.102 23.04 144.062 22.824C145.022 22.584 145.862 22.272 146.582 21.888L147.41 25.956C146.45 26.46 145.382 26.844 144.206 27.108C143.054 27.396 141.878 27.54 140.678 27.54ZM143.558 15.444C143.486 14.412 143.126 13.596 142.478 12.996C141.83 12.372 140.966 12.06 139.886 12.06C138.854 12.06 138.002 12.36 137.33 12.96C136.682 13.56 136.274 14.388 136.106 15.444H143.558ZM158.187 27.54C156.099 27.54 154.455 26.748 153.255 25.164C152.079 23.556 151.491 21.324 151.491 18.468C151.491 15.084 152.367 12.492 154.119 10.692C155.895 8.868 158.415 7.956 161.679 7.956C162.087 7.956 162.699 7.98 163.515 8.028V0.719999H168.519V27H163.587L163.695 24.588H163.551C162.927 25.548 162.159 26.28 161.247 26.784C160.359 27.288 159.339 27.54 158.187 27.54ZM159.339 23.112C160.107 23.112 160.851 22.788 161.571 22.14C162.291 21.468 162.939 20.52 163.515 19.296V12.708C162.699 12.492 161.919 12.384 161.175 12.384C159.663 12.384 158.511 12.876 157.719 13.86C156.951 14.844 156.567 16.284 156.567 18.18C156.567 19.716 156.807 20.928 157.287 21.816C157.791 22.68 158.475 23.112 159.339 23.112ZM176.876 28.224C175.868 28.224 174.992 27.852 174.248 27.108C173.528 26.388 173.168 25.524 173.168 24.516C173.168 23.484 173.528 22.608 174.248 21.888C174.992 21.144 175.868 20.772 176.876 20.772C177.908 20.772 178.784 21.144 179.504 21.888C180.224 22.608 180.584 23.484 180.584 24.516C180.584 25.524 180.224 26.388 179.504 27.108C178.784 27.852 177.908 28.224 176.876 28.224ZM193.902 27.54C190.83 27.54 188.442 26.724 186.738 25.092C185.058 23.46 184.218 21.156 184.218 18.18C184.218 16.164 184.614 14.388 185.406 12.852C186.198 11.292 187.314 10.092 188.754 9.252C190.194 8.388 191.862 7.956 193.758 7.956C194.646 7.956 195.57 8.064 196.53 8.28C197.514 8.472 198.27 8.7 198.798 8.964L197.826 13.248C197.274 12.984 196.662 12.78 195.99 12.636C195.342 12.468 194.73 12.384 194.154 12.384C192.666 12.384 191.466 12.888 190.554 13.896C189.666 14.904 189.222 16.236 189.222 17.892C189.222 19.572 189.678 20.868 190.59 21.78C191.526 22.692 192.846 23.148 194.55 23.148C195.678 23.148 196.89 22.932 198.186 22.5L198.942 26.604C197.382 27.228 195.702 27.54 193.902 27.54ZM210.951 27.54C209.079 27.54 207.423 27.132 205.983 26.316C204.567 25.5 203.463 24.36 202.671 22.896C201.879 21.408 201.483 19.692 201.483 17.748C201.483 15.804 201.867 14.1 202.635 12.636C203.427 11.148 204.531 9.996 205.947 9.18C207.387 8.364 209.043 7.956 210.915 7.956C212.787 7.956 214.431 8.364 215.847 9.18C217.287 9.972 218.391 11.1 219.159 12.564C219.951 14.028 220.347 15.72 220.347 17.64C220.347 19.584 219.951 21.312 219.159 22.824C218.391 24.312 217.287 25.476 215.847 26.316C214.431 27.132 212.799 27.54 210.951 27.54ZM210.915 23.148C212.211 23.148 213.243 22.656 214.011 21.672C214.803 20.664 215.199 19.344 215.199 17.712C215.199 16.08 214.803 14.784 214.011 13.824C213.243 12.84 212.211 12.348 210.915 12.348C209.619 12.348 208.575 12.84 207.783 13.824C207.015 14.784 206.631 16.08 206.631 17.712C206.631 19.344 207.015 20.664 207.783 21.672C208.575 22.656 209.619 23.148 210.915 23.148ZM224.11 8.46H229.078V11.34C230.542 9.084 232.522 7.956 235.018 7.956C236.434 7.956 237.634 8.292 238.618 8.964C239.626 9.612 240.358 10.548 240.814 11.772C241.654 10.452 242.59 9.492 243.622 8.892C244.678 8.268 245.878 7.956 247.222 7.956C249.214 7.956 250.762 8.556 251.866 9.756C252.994 10.932 253.558 12.576 253.558 14.688V27H248.482V15.48C248.482 14.52 248.242 13.776 247.762 13.248C247.306 12.696 246.682 12.42 245.89 12.42C244.906 12.42 243.994 12.828 243.154 13.644C242.314 14.46 241.69 15.504 241.282 16.776V27H236.206V15.48C236.206 14.544 235.966 13.8 235.486 13.248C235.006 12.696 234.37 12.42 233.578 12.42C232.69 12.42 231.85 12.756 231.058 13.428C230.29 14.076 229.666 15 229.186 16.2V27H224.11V8.46Z" fill="black"/>
</svg>
